<svg xmlns="http://www.w3.org/2000/svg" viewBox="0 0 960 270" width="960" height="270" fill="none">
<defs>
  <radialGradient id="fdsh" cx="66%" cy="30%" r="72%" gradientUnits="objectBoundingBox">
    <stop offset="0%" stop-color="#c8f2ff"></stop>
    <stop offset="20%" stop-color="#61d4ff" stop-opacity=".9"></stop>
    <stop offset="58%" stop-color="#194ea0" stop-opacity=".88"></stop>
    <stop offset="100%" stop-color="#050e22" stop-opacity=".97"></stop>
  </radialGradient>
  <linearGradient id="frng" x1="4%" y1="58%" x2="96%" y2="36%">
    <stop offset="0%" stop-color="#61d4ff" stop-opacity=".04"></stop>
    <stop offset="28%" stop-color="#61d4ff" stop-opacity=".9"></stop>
    <stop offset="68%" stop-color="#2ea3ff" stop-opacity=".85"></stop>
    <stop offset="100%" stop-color="#2ea3ff" stop-opacity=".04"></stop>
  </linearGradient>
</defs>

<g transform="translate(18,35) scale(2.0)">
  <line x1="30" y1="61" x2="30" y2="80" stroke="#6888a8" stroke-width="2.8" stroke-linecap="round"></line>
  <path d="M20 84 L30 73 L40 84" fill="none" stroke="#6888a8" stroke-width="2.8" stroke-linecap="round" stroke-linejoin="round"></path>
  <line x1="15" y1="86" x2="45" y2="86" stroke="#6888a8" stroke-width="2" stroke-linecap="round" opacity=".42"></line>
  <path d="M 3,54 A 32 11 -15 0 0 65,38" fill="none" stroke="url(#frng)" stroke-width="2.8" stroke-linecap="round" opacity=".42"></path>
  <g transform="rotate(-28 29 43)">
    <ellipse cx="29" cy="43" rx="23" ry="10" fill="url(#fdsh)"></ellipse>
    <ellipse cx="30" cy="43" rx="14.5" ry="6.2" fill="none" stroke="#61d4ff" stroke-width=".7" opacity=".28"></ellipse>
    <ellipse cx="29" cy="43" rx="23" ry="10" fill="none" stroke="#3db8f0" stroke-width="1.3" opacity=".52"></ellipse>
  </g>
  <line x1="29" y1="41" x2="50" y2="26" stroke="#c0dcf5" stroke-width="2.1" stroke-linecap="round" opacity=".72"></line>
  <line x1="36" y1="46" x2="50" y2="26" stroke="#c0dcf5" stroke-width="1.4" stroke-linecap="round" opacity=".32"></line>
  <circle cx="50" cy="26" r="3.8" fill="#2ea3ff"></circle>
  <circle cx="50" cy="26" r="3.8" fill="none" stroke="#80d8ff" stroke-width="1" opacity=".6"></circle>
  <circle cx="49" cy="25" r="1.5" fill="#d4f4ff" opacity=".5"></circle>
  <path d="M 65,38 A 32 11 -15 0 1 3,54" fill="none" stroke="url(#frng)" stroke-width="3" stroke-linecap="round"></path>
  <path d="M 53.8,17.4 A 9.4 9.4 0 0 1 58.8,29.2" fill="none" stroke="#61d4ff" stroke-width="2.5" stroke-linecap="round"></path>
  <path d="M 56.7,11.0 A 16.4 16.4 0 0 1 65.4,31.6" fill="none" stroke="#61d4ff" stroke-width="2.2" stroke-linecap="round" opacity=".76"></path>
  <path d="M 59.6,4.6 A 23.4 23.4 0 0 1 72.0,34.0" fill="none" stroke="#61d4ff" stroke-width="2" stroke-linecap="round" opacity=".52"></path>
</g>

<text x="232" y="118" font-family="&#39;Space Grotesk&#39;,system-ui,sans-serif" font-size="64" font-weight="700" letter-spacing="-1.5" fill="#eef5ff">TV Signal</text>
<text x="234" y="174" font-family="&#39;Space Mono&#39;,ui-monospace,monospace" font-size="27" letter-spacing="9.5" fill="#8fa6c6">SOLUTIONS</text>
</svg>