<svg xmlns="http://www.w3.org/2000/svg" viewBox="0 0 920 260" width="920" height="260" fill="none">
    <g transform="translate(26,62) scale(2.1)"><path d="M 43.45 15.52 A 6 6 0 0 1 46.64 23.06" fill="none" stroke="#61d4ff" stroke-width="2.1" stroke-linecap="round"></path><path d="M 45.29 11.42 A 10.5 10.5 0 0 1 50.86 24.60" fill="none" stroke="#61d4ff" stroke-width="2.1" stroke-linecap="round"></path><path d="M 47.13 7.31 A 15 15 0 0 1 55.09 26.14" fill="none" stroke="#61d4ff" stroke-width="2.1" stroke-linecap="round"></path>
    <g transform="rotate(-30 25 33)">
      <ellipse cx="25" cy="33" rx="17" ry="7.4" fill="#dcebff"></ellipse>
      <ellipse cx="25" cy="33" rx="17" ry="7.4" fill="none" stroke="#2ea3ff" stroke-width="1.1" opacity=".4"></ellipse>
      <ellipse cx="26.5" cy="33" rx="11" ry="4.4" fill="none" stroke="#cfe6ff" stroke-width="1.3" opacity=".55"></ellipse>
    </g>
    <line x1="24" y1="36" x2="24" y2="49" stroke="#eaf2ff" stroke-width="2.4" stroke-linecap="round"></line>
    <path d="M18 51 L24 44 L30 51" fill="none" stroke="#eaf2ff" stroke-width="2.4" stroke-linecap="round" stroke-linejoin="round"></path>
    <line x1="15" y1="52.5" x2="33" y2="52.5" stroke="#eaf2ff" stroke-width="2.4" stroke-linecap="round" opacity=".5"></line>
    <line x1="25" y1="31.5" x2="40.5" y2="21.5" stroke="#eef6ff" stroke-width="2.2" stroke-linecap="round"></line>
    <line x1="31" y1="27" x2="40.5" y2="21.5" stroke="#eef6ff" stroke-width="2.2" stroke-linecap="round"></line>
    <circle cx="41" cy="21" r="3.0" fill="#61d4ff"></circle></g>
    <text x="300" y="120" font-family="&#39;Space Grotesk&#39;,system-ui,sans-serif" font-size="62" font-weight="700" letter-spacing="-1.5" fill="#eef5ff">TV Signal</text>
    <text x="302" y="178" font-family="&#39;Space Mono&#39;,ui-monospace,monospace" font-size="26" letter-spacing="9.5" fill="#8fa6c6">SOLUTIONS</text>
  </svg>